<svg width="200" height="112" viewBox="0 0 200 112" fill="none" xmlns="http://www.w3.org/2000/svg">
<rect width="200" height="112" fill="#181B28"/>
<path d="M39 47V46C39 45.4477 38.5523 45 38 45C37.4477 45 37 45.4477 37 46V47H33C32.7348 47 32.4804 47.1054 32.2929 47.2929C32.1054 47.4804 32 47.7348 32 48V56C32 56.5523 32.4477 57 33 57C33.5523 57 34 56.5523 34 56V52H50V63H34V62C34 61.4477 33.5523 61 33 61C32.4477 61 32 61.4477 32 62V64C32 64.2652 32.1054 64.5196 32.2929 64.7071C32.4804 64.8946 32.7348 65 33 65H51C51.2652 65 51.5196 64.8946 51.7071 64.7071C51.8946 64.5196 52 64.2652 52 64V48C52 47.7348 51.8946 47.4804 51.7071 47.2929C51.5196 47.1054 51.2652 47 51 47H47V46C47 45.4477 46.5523 45 46 45C45.4477 45 45 45.4477 45 46V47H39Z" fill="#2F396D"/>
<path fill-rule="evenodd" clip-rule="evenodd" d="M49.7196 51.3105C49.7854 50.7622 50.2833 50.371 50.8317 50.4369C51.9204 50.5677 52.8915 50.7924 53.6407 51.1404C54.3577 51.4735 55.1048 52.0348 55.27 52.9547C55.448 53.9463 54.8513 54.7821 54.225 55.3668C53.5601 55.9876 52.6089 56.5715 51.4902 57.1041C49.2395 58.1756 46.095 59.1405 42.5839 59.771C39.0728 60.4015 35.789 60.591 33.3061 60.3695C32.0721 60.2594 30.9771 60.043 30.1377 59.6923C29.3471 59.362 28.4969 58.7861 28.3188 57.7945C28.1961 57.1108 28.4494 56.4952 28.7985 56.0131C29.1462 55.5328 29.6488 55.0959 30.2255 54.7008C30.6811 54.3887 31.3035 54.505 31.6157 54.9606C31.9278 55.4163 31.8114 56.0387 31.3558 56.3508C30.8797 56.677 30.5803 56.9624 30.4184 57.186C30.3134 57.3311 30.2925 57.4111 30.2888 57.4388C30.3058 57.4709 30.41 57.6385 30.9087 57.8469C31.4802 58.0856 32.3465 58.276 33.4838 58.3774C35.7437 58.579 38.8427 58.4108 42.2304 57.8025C45.618 57.1941 48.582 56.2736 50.6305 55.2983C51.6615 54.8075 52.4075 54.3276 52.8601 53.905C53.25 53.5409 53.2934 53.3477 53.2992 53.3082C53.2805 53.2735 53.187 53.1349 52.7981 52.9542C52.3191 52.7317 51.5818 52.5414 50.5932 52.4226C50.0448 52.3568 49.6537 51.8588 49.7196 51.3105ZM30.2882 57.4502C30.2881 57.4502 30.2879 57.4488 30.2881 57.4459C30.2884 57.4487 30.2883 57.4501 30.2882 57.4502Z" fill="#2F396D"/>
<path d="M42.0001 60.5012L40.4776 61.3973C40.1074 61.6152 39.6529 61.2956 39.7327 60.8736L40.0801 59.0344L38.7465 57.7378C38.4458 57.4454 38.617 56.935 39.0332 56.8831L40.8133 56.6611L41.5422 54.9998C41.7172 54.601 42.283 54.601 42.4579 54.9998L43.1868 56.6611L44.9669 56.8831C45.3831 56.935 45.5543 57.4454 45.2536 57.7378L43.92 59.0344L44.2674 60.8736C44.3472 61.2956 43.8927 61.6152 43.5225 61.3973L42.0001 60.5012Z" fill="#4C5DB4"/>
<path d="M69.7118 60.3586V51.6813H71.7809C74.4526 51.6813 75.4971 52.8754 75.4971 55.8607C75.4971 58.846 74.4526 60.3586 72.0219 60.3586H69.7118ZM72.5844 62.6075C76.0395 62.6075 78.3496 59.881 78.3496 55.8607C78.3496 51.8405 75.7784 49.3926 72.1626 49.3926H67V62.6075H72.5844Z" fill="#4C5DB4"/>
<path d="M89.865 62.6075V60.2591H82.4526V56.8558H88.9811V54.5273H82.4526V51.7012H89.5436V49.3926H79.7407V62.6075H89.865Z" fill="#4C5DB4"/>
<path d="M98.0886 62.6075L102.608 49.3926H99.7157L96.8231 58.6669L93.9103 49.3926H90.9373L95.4571 62.6075H98.0886Z" fill="#4C5DB4"/>
<path d="M103.966 62.6075V59.9208H101.174V62.6075H103.966Z" fill="#4C5DB4"/>
<path d="M119.78 62.6075V60.2591H112.368V56.8558H118.897V54.5273H112.368V51.7012H119.459V49.3926H109.656V62.6075H119.78Z" fill="#4C5DB4"/>
<path d="M127.701 62.6075L132.221 49.3926H129.328L126.436 58.6669L123.523 49.3926H120.55L125.07 62.6075H127.701Z" fill="#4C5DB4"/>
<path d="M143.588 62.6075V60.2591H136.175V56.8558H142.704V54.5273H136.175V51.7012H143.266V49.3926H133.463V62.6075H143.588Z" fill="#4C5DB4"/>
<path d="M155.929 62.6075V49.3926H153.318V57.8907L148.015 49.3926H145.062V62.6075H147.653V53.7312L153.358 62.6075H155.929Z" fill="#4C5DB4"/>
<path d="M163.962 62.6075V51.7012H168V49.3926H157.153V51.7012H161.17V62.6075H163.962Z" fill="#4C5DB4"/>
</svg>
