<svg width="14" height="16" viewBox="0 0 14 16" fill="none" xmlns="http://www.w3.org/2000/svg">
<path d="M11.0326 8.39851C11.0258 7.25096 11.5562 6.38609 12.6275 5.74837C12.0283 4.90706 11.1219 4.44434 9.92704 4.35516C8.79571 4.26766 7.55794 5.00129 7.10472 5.00129C6.62575 5.00129 5.53047 4.38545 4.66867 4.38545C2.89013 4.41237 1 5.77529 1 8.54826C1 9.3677 1.15279 10.2141 1.45837 11.0857C1.86695 12.2332 3.33991 15.0449 4.87639 14.9995C5.67983 14.9809 6.24807 14.4408 7.29356 14.4408C8.30815 14.4408 8.83348 14.9995 9.72961 14.9995C11.2798 14.9776 12.612 12.4217 13 11.2708C10.921 10.31 11.0326 8.4574 11.0326 8.39851ZM9.22833 3.2665C10.0987 2.25356 10.0197 1.33148 9.99399 1C9.22489 1.04375 8.33562 1.5132 7.82918 2.09034C7.27124 2.70955 6.94335 3.47514 7.01373 4.33833C7.84464 4.40059 8.60343 3.98161 9.22833 3.2665Z" fill="white"/>
</svg>
