<svg width="16" height="16" viewBox="0 0 16 16" fill="none" xmlns="http://www.w3.org/2000/svg">
<path d="M14.7915 7.00459H3.62148L8.50148 2.12459C8.89148 1.73459 8.89148 1.09459 8.50148 0.704595C8.31465 0.517342 8.061 0.412109 7.79648 0.412109C7.53197 0.412109 7.27832 0.517342 7.09148 0.704595L0.501484 7.29459C0.111484 7.68459 0.111484 8.31459 0.501484 8.70459L7.09148 15.2946C7.48148 15.6846 8.11148 15.6846 8.50148 15.2946C8.89148 14.9046 8.89148 14.2746 8.50148 13.8846L3.62148 9.00459H14.7915C15.3415 9.00459 15.7915 8.55459 15.7915 8.00459C15.7915 7.45459 15.3415 7.00459 14.7915 7.00459Z" fill="#3B3B3B"/>
</svg>
