<svg width="18" height="18" viewBox="0 0 18 18" fill="none" xmlns="http://www.w3.org/2000/svg">
<path fill-rule="evenodd" clip-rule="evenodd" d="M17.145 5.07957C17.658 5.39457 17.991 5.96157 17.991 6.60957L18 15.6096C18 16.5996 17.19 17.4096 16.2 17.4096H1.8C0.81 17.4096 0 16.5996 0 15.6096V6.60957C0 5.96157 0.342 5.39457 0.855 5.07957L8.091 0.84057C8.649 0.50757 9.351 0.50757 9.909 0.84057L17.145 5.07957ZM1.56621 6.46557L8.04621 10.5156C8.63121 10.8756 9.36921 10.8756 9.95421 10.5156L16.4342 6.46557L9.90921 2.64057C9.35121 2.30757 8.64921 2.30757 8.09121 2.64057L1.56621 6.46557Z" fill="#D8D8D8"/>
</svg>
