<svg width="146" height="110" viewBox="0 0 146 110" fill="none" xmlns="http://www.w3.org/2000/svg">
<path fill-rule="evenodd" clip-rule="evenodd" d="M24.3333 18.0376C24.3333 21.1955 25.966 24.129 28.6499 25.793L81.7467 61.7547C83.8203 63.0403 86.4615 62.9627 88.456 61.5575L135.658 23.1167V96.1167C135.658 97.7965 134.296 99.1583 132.617 99.1583H25.5925C24.897 99.1583 24.3333 102.764 24.3333 103.459C24.3333 105.06 24.9689 106.596 26.1004 107.729C27.2319 108.861 28.7669 109.498 30.3679 109.5H139.965C141.563 109.487 143.091 108.847 144.22 107.716C145.35 106.586 145.989 105.057 146 103.459V6.04075C146 2.70708 143.299 0 139.965 0H30.3679C28.7703 0.0127425 27.2418 0.653459 26.1127 1.78374C24.9836 2.91402 24.3444 4.44313 24.3333 6.04075V18.0376ZM1.52083 51.7083H36.5C37.3399 51.7083 38.0208 52.3892 38.0208 53.2291V59.3124C38.0208 60.1524 37.3399 60.8333 36.5 60.8333H1.52083C0.680901 60.8333 0 60.1524 0 59.3124V53.2291C0 52.3892 0.6809 51.7083 1.52083 51.7083ZM1.52083 74.5208H59.3125C60.1524 74.5208 60.8333 75.2017 60.8333 76.0416V82.1249C60.8333 82.9649 60.1524 83.6458 59.3125 83.6458H1.52083C0.680899 83.6458 0 82.9649 0 82.1249V76.0416C0 75.2017 0.6809 74.5208 1.52083 74.5208Z" fill="#D3D4D8"/>
</svg>
