<svg width="58" height="58" viewBox="0 0 58 58" fill="none" xmlns="http://www.w3.org/2000/svg">
<path d="M16.4 4C17.4493 4 18.3 4.85066 18.3 5.9V7.8H29.7V5.9C29.7 4.85066 30.5507 4 31.6 4C32.6493 4 33.5 4.85066 33.5 5.9V7.8H41.1C41.6039 7.8 42.0872 8.00018 42.4435 8.3565C42.7998 8.71282 43 9.19609 43 9.7V40.1C43 40.6039 42.7998 41.0872 42.4435 41.4435C42.0872 41.7998 41.6039 42 41.1 42H6.9C6.39609 42 5.91282 41.7998 5.5565 41.4435C5.20018 41.0872 5 40.6039 5 40.1V9.7C5 9.19609 5.20018 8.71282 5.5565 8.3565C5.91282 8.00018 6.39609 7.8 6.9 7.8H14.5V5.9C14.5 4.85066 15.3507 4 16.4 4ZM39.2 16.3H8.8V38.2H39.2V16.3Z" fill="#D3D4D8"/>
<path d="M19 23L29 33M29 23L19 33" stroke="#D3D4D8" stroke-width="2.4" stroke-linecap="round" stroke-linejoin="round"/>
<path d="M49.0788 44.8301L54.0217 49.7718C54.562 50.3119 54.562 51.1877 54.0218 51.7279C53.4817 52.2681 52.6059 52.268 52.0658 51.7278L47.124 46.7849C44.9214 48.5506 42.1817 49.511 39.3587 49.507C32.4906 49.507 26.9165 43.9329 26.9165 37.0648C26.9165 30.1967 32.4906 24.6226 39.3587 24.6226C46.2268 24.6226 51.8009 30.1967 51.8009 37.0648C51.8049 39.8878 50.8446 42.6275 49.0788 44.8301ZM46.3056 43.8043C48.0601 42 49.0399 39.5814 49.036 37.0648C49.036 31.7174 44.7047 27.3875 39.3587 27.3875C34.0113 27.3875 29.6814 31.7174 29.6814 37.0648C29.6814 42.4108 34.0113 46.742 39.3587 46.742C41.8754 46.746 44.294 45.7662 46.0982 44.0117L46.3056 43.8043Z" fill="#7E92F8"/>
<path d="M49.0359 37.0647C49.0399 39.5814 48.0601 42 46.3056 43.8043L46.0982 44.0116C44.2939 45.7661 41.8754 46.746 39.3587 46.742C34.0113 46.742 29.6814 42.4107 29.6814 37.0647C29.6814 31.7173 34.0113 27.3875 39.3587 27.3875C44.7047 27.3875 49.0359 31.7173 49.0359 37.0647Z" fill="white"/>
</svg>
