<svg width="24" height="24" viewBox="0 0 24 24" fill="none" xmlns="http://www.w3.org/2000/svg">
<path d="M12 12C13.3261 12 14.5979 11.4732 15.5355 10.5355C16.4732 9.59785 17 8.32608 17 7C17 5.67392 16.4732 4.40215 15.5355 3.46447C14.5979 2.52678 13.3261 2 12 2C10.6739 2 9.40215 2.52678 8.46447 3.46447C7.52678 4.40215 7 5.67392 7 7C7 8.32608 7.52678 9.59785 8.46447 10.5355C9.40215 11.4732 10.6739 12 12 12ZM15.3333 7C15.3333 7.88406 14.9821 8.7319 14.357 9.35702C13.7319 9.98214 12.8841 10.3333 12 10.3333C11.1159 10.3333 10.2681 9.98214 9.64298 9.35702C9.01786 8.7319 8.66667 7.88406 8.66667 7C8.66667 6.11595 9.01786 5.2681 9.64298 4.64298C10.2681 4.01786 11.1159 3.66667 12 3.66667C12.8841 3.66667 13.7319 4.01786 14.357 4.64298C14.9821 5.2681 15.3333 6.11595 15.3333 7ZM22 20.3333C22 22 20.3333 22 20.3333 22H3.66667C3.66667 22 2 22 2 20.3333C2 18.6667 3.66667 13.6667 12 13.6667C20.3333 13.6667 22 18.6667 22 20.3333ZM20.3333 20.3267C20.3317 19.9167 20.0767 18.6833 18.9467 17.5533C17.86 16.4667 15.815 15.3333 12 15.3333C8.18333 15.3333 6.14 16.4667 5.05333 17.5533C3.92333 18.6833 3.67 19.9167 3.66667 20.3267H20.3333Z" fill="#E8E8E8"/>
</svg>
