<svg width="72" height="29" viewBox="0 0 72 29" fill="none" xmlns="http://www.w3.org/2000/svg">
<rect y="0.5" width="72" height="28" rx="4" fill="#03C754"/>
<path d="M22.2149 20.6895H20.9229V8.40527H22.2149V20.6895ZM24.1905 14.2295H21.921V13.1562H24.1905V14.2295ZM14.1827 16.5674C15.3539 16.5628 16.3679 16.5309 17.2247 16.4717C18.0815 16.4124 18.9519 16.3031 19.836 16.1436L19.9932 17.251C19.0909 17.4105 18.2045 17.5176 17.3341 17.5723C16.4682 17.6224 15.4177 17.6475 14.1827 17.6475H13.1915V16.5674H14.1827ZM18.92 10.6475H14.4835V17.0732H13.1915V9.58105H18.92V10.6475ZM28.7572 11.5225C28.7572 12.4886 28.6091 13.4115 28.3129 14.291C28.0166 15.1706 27.5996 15.9476 27.0619 16.6221C26.5241 17.2965 25.9043 17.807 25.2025 18.1533L24.389 17.0664C25.027 16.7839 25.5944 16.3555 26.0912 15.7812C26.5925 15.207 26.9821 14.5485 27.2601 13.8057C27.5381 13.0628 27.6794 12.3018 27.6839 11.5225V9.42383H28.7572V11.5225ZM28.9896 11.5225C28.9851 12.2653 29.1218 12.9922 29.3998 13.7031C29.6778 14.4141 30.0629 15.0498 30.555 15.6104C31.0472 16.1663 31.6055 16.5811 32.2298 16.8545L31.4505 17.8867C30.7533 17.554 30.1358 17.0664 29.598 16.4238C29.0648 15.7767 28.6478 15.0316 28.347 14.1885C28.0508 13.3408 27.905 12.4521 27.9095 11.5225V9.42383H28.9896V11.5225ZM34.6429 20.6895H33.3373V8.40527H34.6429V20.6895ZM47.5221 19.1377H36.3112V18.0713H47.5221V19.1377ZM42.525 18.3721H41.2536V15.2139H42.525V18.3721ZM38.8952 11.3584H44.9108V9.24609H46.1891V15.5557H37.5895V9.24609H38.8952V11.3584ZM44.9108 14.5029V12.4043H38.8952V14.5029H44.9108ZM58.3163 20.6553H57.0038V8.40527H58.3163V20.6553ZM54.6796 9.72461C54.6751 10.9733 54.4814 12.1286 54.0986 13.1904C53.7157 14.2477 53.1005 15.223 52.2529 16.1162C51.4052 17.0094 50.3023 17.7796 48.9443 18.4268L48.247 17.374C49.4228 16.818 50.3912 16.1709 51.1523 15.4326C51.9133 14.6898 52.4739 13.8649 52.8339 12.958C53.1985 12.0465 53.3831 11.0394 53.3876 9.93652V9.72461H54.6796ZM53.9482 10.7637H48.8417V9.72461H53.9482V10.7637Z" fill="white"/>
</svg>
