<svg width="61" height="61" viewBox="0 0 61 61" fill="none" xmlns="http://www.w3.org/2000/svg">
<path d="M22.1765 43.0684C16.2391 43.0684 11.211 41.0099 7.09226 36.893C2.97346 32.776 0.914062 27.7885 0.914062 21.9305C0.914062 16.0725 2.97256 11.085 7.08955 6.96806C11.2065 2.85107 16.2004 0.792572 22.0712 0.792572C27.9421 0.792572 32.9352 2.85107 37.0505 6.96806C41.1658 11.085 43.2235 16.0728 43.2235 21.9314C43.2235 24.3831 42.8039 26.7699 41.9649 29.092C41.1257 31.4141 39.9119 33.5175 38.3235 35.4021L59.6331 56.5704C60.0235 56.9348 60.2243 57.4129 60.2355 58.0047C60.2467 58.5966 60.0459 59.0933 59.6331 59.4948C59.2203 59.8964 58.7236 60.0972 58.143 60.0972C57.5625 60.0972 57.0787 59.8908 56.6918 59.478L35.4697 38.2559C33.7286 39.7967 31.6983 40.984 29.3789 41.8177C27.0594 42.6515 24.6586 43.0684 22.1765 43.0684ZM22.1227 39.0974C26.9034 39.0974 30.9535 37.4315 34.2731 34.0997C37.5927 30.768 39.2524 26.7116 39.2524 21.9305C39.2524 17.1494 37.5927 13.093 34.2731 9.76123C30.9535 6.42952 26.9034 4.76367 22.1227 4.76367C17.312 4.76367 13.2365 6.42952 9.89594 9.76123C6.55542 13.093 4.88516 17.1494 4.88516 21.9305C4.88516 26.7116 6.55542 30.768 9.89594 34.0997C13.2365 37.4315 17.312 39.0974 22.1227 39.0974Z" fill="#20222D" fill-opacity="0.3"/>
</svg>
