<svg width="20" height="20" viewBox="0 0 20 20" fill="none" xmlns="http://www.w3.org/2000/svg">
<path d="M15.9052 13.7897C15.4869 13.7913 15.0732 13.8773 14.689 14.0428C14.3049 14.2082 13.958 14.4495 13.6694 14.7523L6.09903 10.964C6.28525 10.3993 6.28525 9.78973 6.09903 9.22506L13.6819 5.36843C14.225 5.9408 14.9615 6.29077 15.7483 6.35032C16.5351 6.40988 17.316 6.17477 17.9391 5.69068C18.5622 5.2066 18.9831 4.50813 19.1199 3.73103C19.2567 2.95393 19.0997 2.15372 18.6794 1.48593C18.2591 0.818149 17.6055 0.330494 16.8456 0.117754C16.0858 -0.0949864 15.274 -0.0176129 14.5681 0.334835C13.8621 0.687283 13.3124 1.28963 13.0258 2.02479C12.7392 2.75995 12.7362 3.57541 13.0173 4.31267L5.50904 8.13204C5.10354 7.63611 4.55457 7.27773 3.9374 7.10604C3.32023 6.93435 2.66506 6.95774 2.0617 7.17301C1.45835 7.38828 0.936339 7.7849 0.567236 8.30848C0.198132 8.83207 0 9.457 0 10.0976C0 10.7382 0.198132 11.3631 0.567236 11.8867C0.936339 12.4103 1.45835 12.8069 2.0617 13.0222C2.66506 13.2375 3.32023 13.2609 3.9374 13.0892C4.55457 12.9175 5.10354 12.5591 5.50904 12.0632L12.9987 15.8329C12.8722 16.1727 12.807 16.5322 12.8062 16.8948C12.8062 17.509 12.9883 18.1093 13.3295 18.62C13.6707 19.1306 14.1557 19.5286 14.7231 19.7636C15.2905 19.9987 15.9148 20.0601 16.5172 19.9403C17.1195 19.8205 17.6728 19.5248 18.1071 19.0905C18.5413 18.6562 18.8371 18.103 18.9569 17.5006C19.0767 16.8983 19.0152 16.2739 18.7802 15.7065C18.5451 15.1391 18.1472 14.6542 17.6365 14.313C17.1259 13.9718 16.5255 13.7897 15.9114 13.7897H15.9052ZM15.9052 1.36897C16.2736 1.36897 16.6339 1.47824 16.9402 1.68296C17.2466 1.88768 17.4854 2.17866 17.6264 2.5191C17.7675 2.85953 17.8043 3.23414 17.7325 3.59555C17.6606 3.95696 17.4831 4.28893 17.2226 4.54949C16.962 4.81005 16.63 4.98749 16.2686 5.05938C15.9072 5.13127 15.5326 5.09437 15.1922 4.95336C14.8517 4.81234 14.5608 4.57355 14.356 4.26716C14.1513 3.96077 14.0421 3.60056 14.0421 3.23208C14.0421 2.73795 14.2383 2.26406 14.5877 1.91466C14.9371 1.56526 15.411 1.36897 15.9052 1.36897ZM3.15532 11.9266C2.78684 11.9266 2.42663 11.8173 2.12024 11.6126C1.81385 11.4078 1.57506 11.1169 1.43404 10.7764C1.29303 10.436 1.25613 10.0614 1.32802 9.69998C1.39991 9.33857 1.57735 9.0066 1.83791 8.74604C2.09847 8.48548 2.43044 8.30804 2.79185 8.23615C3.15326 8.16426 3.52787 8.20116 3.8683 8.34217C4.20874 8.48318 4.49972 8.72198 4.70444 9.02837C4.90916 9.33475 5.01843 9.69497 5.01843 10.0635C5.01843 10.5576 4.82214 11.0315 4.47274 11.3809C4.12334 11.7303 3.64945 11.9266 3.15532 11.9266ZM15.9052 18.7579C15.5367 18.7579 15.1765 18.6487 14.8701 18.4439C14.5637 18.2392 14.3249 17.9482 14.1839 17.6078C14.0429 17.2674 14.006 16.8928 14.0779 16.5314C14.1497 16.1699 14.3272 15.838 14.5877 15.5774C14.8483 15.3169 15.1803 15.1394 15.5417 15.0675C15.9031 14.9956 16.2777 15.0325 16.6181 15.1735C16.9586 15.3146 17.2495 15.5534 17.4543 15.8597C17.659 16.1661 17.7683 16.5263 17.7683 16.8948C17.7683 17.389 17.572 17.8628 17.2226 18.2122C16.8732 18.5616 16.3993 18.7579 15.9052 18.7579Z" fill="#757575"/>
</svg>
