<svg width="21" height="20" viewBox="0 0 21 20"  fill="none" xmlns="http://www.w3.org/2000/svg">
<path d="M13.49 6.81558L13.3155 6.46188L10.5089 0.77195L10.5086 0.7713C10.505 0.764053 10.4991 0.758122 10.4918 0.754555L10.491 0.754127C10.4817 0.74957 10.4718 0.74838 10.4595 0.752523C10.4475 0.756607 10.4389 0.76399 10.4333 0.774839C10.4332 0.775084 10.4331 0.775331 10.4329 0.775579L7.6281 6.46188L7.45363 6.81558L7.06334 6.87231L0.784883 7.78477L0.783083 7.78503C0.776621 7.78595 0.768851 7.78904 0.761173 7.79647C0.753866 7.80445 0.74986 7.81492 0.750004 7.82577C0.750153 7.83704 0.754772 7.8478 0.762845 7.85566L0.762893 7.85571L5.30544 12.2845L5.58776 12.5598L5.52107 12.9484L4.44788 19.2021L4.4477 19.2031C4.44643 19.2105 4.44724 19.2181 4.45006 19.225C4.45287 19.2319 4.45758 19.2379 4.46364 19.2424C4.4697 19.2468 4.47687 19.2494 4.48433 19.2499C4.49179 19.2504 4.49926 19.2489 4.50588 19.2454L4.50704 19.2448L10.1228 16.2922L10.4718 16.1087L10.8208 16.2922L16.4366 19.2448L16.44 19.2465C16.4409 19.247 16.4435 19.2482 16.4479 19.2489C16.4524 19.2496 16.457 19.2495 16.461 19.2488L16.4621 19.2486C16.486 19.2445 16.4993 19.2229 16.4958 19.2027L16.4958 19.2021L15.4226 12.9484L15.3559 12.5598L15.6382 12.2845L20.1793 7.85706C20.1794 7.85698 20.1795 7.85689 20.1796 7.8568L13.49 6.81558ZM13.49 6.81558L13.8803 6.87231M13.49 6.81558L13.8803 6.87231M13.8803 6.87231L20.1564 7.78443L13.8803 6.87231Z" stroke="#757575" stroke-width="1.5"/>
</svg>
